<svg width="25" height="26" viewBox="0 0 25 26" fill="none" xmlns="http://www.w3.org/2000/svg">
    <path fill-rule="evenodd" clip-rule="evenodd" d="M6.11274 1.42894H17.5554C20.0151 1.42894 22.009 3.42288 22.009 5.88251V12.2433C22.009 12.6009 22.2989 12.8908 22.6566 12.8908C23.0142 12.8908 23.3041 12.6009 23.3041 12.2433V5.88251C23.3041 2.70758 20.7304 0.133789 17.5554 0.133789H6.11274C2.9378 0.133789 0.364014 2.70758 0.364014 5.88251V19.8984C0.364014 23.0734 2.93781 25.6472 6.11274 25.6472H11.8163C12.1739 25.6472 12.4639 25.3572 12.4639 24.9996C12.4639 24.6419 12.1739 24.352 11.8163 24.352H6.11274C3.6531 24.352 1.65917 22.3581 1.65917 19.8984V5.88251C1.65917 3.42287 3.6531 1.42894 6.11274 1.42894ZM18.8148 24.552C21.3245 24.552 23.359 22.5175 23.359 20.0078C23.359 17.4981 21.3245 15.4636 18.8148 15.4636C16.3051 15.4636 14.2706 17.4981 14.2706 20.0078C14.2706 22.5175 16.3051 24.552 18.8148 24.552ZM18.8148 25.866C22.0502 25.866 24.673 23.2432 24.673 20.0078C24.673 16.7724 22.0502 14.1496 18.8148 14.1496C15.5794 14.1496 12.9566 16.7724 12.9566 20.0078C12.9566 23.2432 15.5794 25.866 18.8148 25.866ZM4.7987 7.60725C4.45097 7.60725 4.16908 7.88914 4.16908 8.23687C4.16908 8.58461 4.45097 8.8665 4.7987 8.8665H16.8984C17.2461 8.8665 17.528 8.58461 17.528 8.23687C17.528 7.88914 17.2461 7.60725 16.8984 7.60725H4.7987ZM4.16908 11.4127C4.16908 11.0649 4.45097 10.783 4.7987 10.783H12.9564C13.3041 10.783 13.586 11.0649 13.586 11.4127C13.586 11.7604 13.3041 12.0423 12.9564 12.0423H4.7987C4.45097 12.0423 4.16908 11.7604 4.16908 11.4127ZM19.0338 16.9423C19.0338 16.6399 18.7887 16.3948 18.4863 16.3948C18.1839 16.3948 17.9388 16.6399 17.9388 16.9423V20.4736C17.9388 20.897 18.282 21.2401 18.7053 21.2401H22.2366C22.539 21.2401 22.7841 20.995 22.7841 20.6926C22.7841 20.3903 22.539 20.1451 22.2366 20.1451H19.0338V16.9423Z" fill="black"/>
</svg>
