<svg width="26" height="26" viewBox="0 0 26 26" fill="none" xmlns="http://www.w3.org/2000/svg">
    <path fill-rule="evenodd" clip-rule="evenodd" d="M0.654785 5.80336C0.654785 2.59826 3.25304 0 6.45815 0H18.0096C21.2147 0 23.813 2.59825 23.813 5.80336V13.617C22.8067 13.1431 21.6826 12.8782 20.4967 12.8782C16.1927 12.8782 12.7036 16.3673 12.7036 20.6713C12.7036 22.6142 13.4146 24.3911 14.5907 25.7559H6.45814C3.25303 25.7559 0.654785 23.1576 0.654785 19.9525V5.80336ZM3.97108 7.32308C3.62005 7.32308 3.33548 7.60765 3.33548 7.95869C3.33548 8.30972 3.62005 8.59429 3.97108 8.59429H16.1858C16.5368 8.59429 16.8214 8.30972 16.8214 7.95869C16.8214 7.60765 16.5368 7.32308 16.1858 7.32308H3.97108ZM3.33548 11.1644C3.33548 10.8134 3.62005 10.5288 3.97108 10.5288H12.2063C12.5574 10.5288 12.8419 10.8134 12.8419 11.1644C12.8419 11.5155 12.5574 11.8 12.2063 11.8H3.97108C3.62005 11.8 3.33548 11.5155 3.33548 11.1644ZM25.5816 20.6436C25.5816 23.4671 23.2927 25.7561 20.4691 25.7561C17.6456 25.7561 15.3566 23.4671 15.3566 20.6436C15.3566 17.82 17.6456 15.5311 20.4691 15.5311C23.2927 15.5311 25.5816 17.82 25.5816 20.6436ZM20.2757 18.2391C20.581 18.2391 20.8284 18.4866 20.8284 18.7918V20.9474H22.9839C23.2892 20.9474 23.5366 21.1948 23.5366 21.5001C23.5366 21.8053 23.2892 22.0528 22.9839 22.0528H20.4968C20.0694 22.0528 19.723 21.7063 19.723 21.279V18.7918C19.723 18.4866 19.9705 18.2391 20.2757 18.2391Z" fill="#940D06"/>
</svg>
