<svg width="44" height="44" viewBox="0 0 44 44" fill="none" xmlns="http://www.w3.org/2000/svg">
    <path fill-rule="evenodd" clip-rule="evenodd" d="M36.3603 8.0131V36.3604H8.01298V8.0131H36.3603ZM19.9443 15.0999H17.1836L11.9422 29.2736H14.4329L15.4224 26.5027H21.6966L22.665 29.2736H25.3056L19.9443 15.0999ZM29.7268 15.0999H27.2462V29.2736H29.7268V15.0999ZM18.5429 17.4779L21.0139 24.549H16.1113L18.5429 17.4779ZM38.7228 29.2736H43.4471V33.9982H38.7225L38.7228 29.2736ZM10.3754 38.7227H15.0998V43.4473H10.3752L10.3754 38.7227ZM19.8245 38.7227H24.549V43.4473H19.8245V38.7227ZM10.3752 0.92627H15.0998V5.65086H10.3752V0.92627ZM29.2735 38.7227H33.9981V43.4473H29.2735V38.7227ZM19.8244 0.92627H24.5489V5.65086H19.8244V0.92627ZM29.2735 0.92627H33.9981V5.65086H29.2735V0.92627ZM38.7225 19.8245H43.4471V24.549H38.7225V19.8245ZM0.926147 29.2736H5.65074V33.9982H0.926147V29.2736ZM38.7225 10.3753H43.4471V15.0999H38.7225V10.3753ZM0.926147 19.8245H5.65074V24.549H0.926147V19.8245ZM0.926147 10.3753H5.65074V15.0999H0.926147V10.3753Z" fill="#940D06"/>
</svg>
