<svg width="27" height="26" viewBox="0 0 27 26" fill="none" xmlns="http://www.w3.org/2000/svg">
    <path fill-rule="evenodd" clip-rule="evenodd" d="M25.2067 4.51633C25.2067 6.0572 23.9575 7.30633 22.4167 7.30633C20.8758 7.30633 19.6267 6.0572 19.6267 4.51633C19.6267 2.97545 20.8758 1.72632 22.4167 1.72632C23.9575 1.72632 25.2067 2.97545 25.2067 4.51633ZM26.744 4.51633C26.744 6.90626 24.8066 8.84369 22.4167 8.84369C20.0267 8.84369 18.0893 6.90626 18.0893 4.51633C18.0893 2.12639 20.0267 0.188965 22.4167 0.188965C24.8066 0.188965 26.744 2.12639 26.744 4.51633ZM14.311 2.1249C14.6681 2.1249 14.9576 2.41442 14.9576 2.77156C14.9576 3.1287 14.6681 3.41823 14.311 3.41823H6.92928C4.34168 3.41823 2.24401 5.51589 2.24401 8.1035V19.8329C2.24401 22.4205 4.34167 24.5182 6.92928 24.5182H18.8295C21.4171 24.5182 23.5148 22.4205 23.5148 19.8329V11.7678C23.5148 11.4106 23.8043 11.1211 24.1614 11.1211C24.5186 11.1211 24.8081 11.4106 24.8081 11.7678V19.8329C24.8081 23.1348 22.1314 25.8115 18.8295 25.8115H6.92928C3.62739 25.8115 0.950684 23.1348 0.950684 19.8329V8.1035C0.950684 4.80161 3.62739 2.1249 6.92928 2.1249H14.311ZM9.03596 10.2669C9.03596 9.85808 9.36736 9.52668 9.77617 9.52668H14.616C15.0248 9.52668 15.3562 9.85808 15.3562 10.2669C15.3562 10.6757 15.0248 11.0071 14.616 11.0071H9.77617C9.36736 11.0071 9.03596 10.6757 9.03596 10.2669ZM9.77617 16.2454C9.36736 16.2454 9.03596 16.5768 9.03596 16.9856C9.03596 17.3944 9.36736 17.7258 9.77617 17.7258H16.8366C17.2454 17.7258 17.5768 17.3944 17.5768 16.9856C17.5768 16.5768 17.2454 16.2454 16.8366 16.2454H9.77617Z" fill="black"/>
</svg>
