<svg width="27" height="26" viewBox="0 0 27 26" fill="none" xmlns="http://www.w3.org/2000/svg">
    <path fill-rule="evenodd" clip-rule="evenodd" d="M22.7836 8.0997C25.0203 8.0997 26.8335 6.28652 26.8335 4.04985C26.8335 1.81318 25.0203 0 22.7836 0C20.547 0 18.7338 1.81318 18.7338 4.04985C18.7338 6.28652 20.547 8.0997 22.7836 8.0997ZM16.0247 2.26462C16.1305 1.90279 15.8745 1.51508 15.4975 1.51508H6.8465C3.46736 1.51508 0.728027 4.25441 0.728027 7.63355V19.6374C0.728027 23.0166 3.46736 25.7559 6.8465 25.7559H19.0252C22.4043 25.7559 25.1437 23.0166 25.1437 19.6374V10.8765C25.1437 10.4939 24.745 10.2374 24.3804 10.3533C23.7467 10.5549 23.0728 10.6638 22.3757 10.6638C18.7552 10.6638 15.7619 7.72876 15.7619 4.10825C15.7619 3.46813 15.8536 2.84945 16.0247 2.26462ZM9.0026 9.61468C8.58423 9.61468 8.24508 9.95384 8.24508 10.3722C8.24508 10.7906 8.58423 11.1297 9.0026 11.1297H13.9557C14.374 11.1297 14.7132 10.7906 14.7132 10.3722C14.7132 9.95384 14.374 9.61468 13.9557 9.61468H9.0026ZM8.24498 17.2483C8.24498 16.8299 8.58413 16.4907 9.0025 16.4907H16.2281C16.6465 16.4907 16.9857 16.8299 16.9857 17.2483C16.9857 17.6666 16.6465 18.0058 16.2281 18.0058H9.0025C8.58413 18.0058 8.24498 17.6666 8.24498 17.2483Z" fill="#940D06"/>
</svg>
