<svg width="14" height="16" viewBox="0 0 14 16" fill="none" xmlns="http://www.w3.org/2000/svg">
    <path fill-rule="evenodd" clip-rule="evenodd" d="M12.2805 3.28205L11.6208 14.455C11.5962 14.8729 11.4123 15.2657 11.1065 15.5529C10.8008 15.8402 10.3964 16.0001 9.97624 16H4.02376C3.60356 16.0001 3.1992 15.8402 2.89347 15.5529C2.58774 15.2657 2.40376 14.8729 2.37918 14.455L1.72118 3.28205H0V2.46154C0 2.35273 0.0433823 2.24838 0.120603 2.17144C0.197824 2.09451 0.302558 2.05128 0.411765 2.05128H13.5882C13.6974 2.05128 13.8022 2.09451 13.8794 2.17144C13.9566 2.24838 14 2.35273 14 2.46154V3.28205H12.2805ZM5.35294 0H8.64706C8.75627 0 8.861 0.0432234 8.93822 0.120161C9.01544 0.197099 9.05882 0.30145 9.05882 0.410256V1.23077H4.94118V0.410256C4.94118 0.30145 4.98456 0.197099 5.06178 0.120161C5.139 0.0432234 5.24373 0 5.35294 0ZM4.52941 5.33333L4.94118 12.7179H6.17647L5.84706 5.33333H4.52941ZM8.23529 5.33333L7.82353 12.7179H9.05882L9.47059 5.33333H8.23529Z" fill="black"/>
</svg>
