<svg width="29" height="29" viewBox="0 0 29 29" fill="none" xmlns="http://www.w3.org/2000/svg">
    <path d="M27.3999 0H1.60008C0.716382 0 0 0.716382 0 1.60008V27.3999C0 28.2836 0.716382 29 1.60008 29H27.3999C28.2836 29 29 28.2836 29 27.3999V1.60008C29 0.716382 28.2836 0 27.3999 0Z" fill="#3D5A98"/>
    <path d="M20.0073 28.9986V17.7686H23.7759L24.3395 13.3922H20.0073V10.5988C20.0073 9.33198 20.3601 8.467 22.1758 8.467H24.4939V4.54643C23.3714 4.42965 22.2434 4.37403 21.1148 4.3798C17.7774 4.3798 15.479 6.4136 15.479 10.1651V13.3922H11.7103V17.7686H15.479V28.9986H20.0073Z" fill="white"/>
</svg>
