<svg width="23" height="17" viewBox="0 0 23 17" fill="none" xmlns="http://www.w3.org/2000/svg">
    <path d="M0.789368 1.93411C0.789368 1.67238 0.893338 1.42137 1.07841 1.2363C1.26348 1.05124 1.51448 0.947266 1.77621 0.947266H21.5131C21.7748 0.947266 22.0258 1.05124 22.2109 1.2363C22.3959 1.42137 22.4999 1.67238 22.4999 1.93411C22.4999 2.19583 22.3959 2.44684 22.2109 2.63191C22.0258 2.81698 21.7748 2.92095 21.5131 2.92095H1.77621C1.51448 2.92095 1.26348 2.81698 1.07841 2.63191C0.893338 2.44684 0.789368 2.19583 0.789368 1.93411ZM4.07884 8.51305C4.07884 8.25133 4.18281 8.00032 4.36788 7.81525C4.55295 7.63018 4.80396 7.52621 5.06568 7.52621H18.2236C18.4853 7.52621 18.7363 7.63018 18.9214 7.81525C19.1065 8.00032 19.2104 8.25133 19.2104 8.51305C19.2104 8.77478 19.1065 9.02579 18.9214 9.21086C18.7363 9.39593 18.4853 9.4999 18.2236 9.4999H5.06568C4.80396 9.4999 4.55295 9.39593 4.36788 9.21086C4.18281 9.02579 4.07884 8.77478 4.07884 8.51305ZM8.02621 15.092C8.02621 14.8303 8.13018 14.5793 8.31525 14.3942C8.50032 14.2091 8.75133 14.1052 9.01305 14.1052H14.2762C14.5379 14.1052 14.7889 14.2091 14.974 14.3942C15.1591 14.5793 15.2631 14.8303 15.2631 15.092C15.2631 15.3537 15.1591 15.6047 14.974 15.7898C14.7889 15.9749 14.5379 16.0788 14.2762 16.0788H9.01305C8.75133 16.0788 8.50032 15.9749 8.31525 15.7898C8.13018 15.6047 8.02621 15.3537 8.02621 15.092Z" fill="white"/>
</svg>
