<svg width="56" height="17" viewBox="0 0 56 17" fill="none" xmlns="http://www.w3.org/2000/svg">
    <path d="M53.676 17C53.9809 17.0003 54.2828 16.9396 54.5646 16.8215C54.8464 16.7033 55.1025 16.5299 55.3183 16.3113C55.5342 16.0926 55.7054 15.8329 55.8224 15.5471C55.9393 15.2612 55.9997 14.9548 56 14.6452C56.0003 14.3357 55.9406 14.0291 55.8242 13.743C55.7078 13.4569 55.537 13.1968 55.3216 12.9777C55.1063 12.7586 54.8505 12.5848 54.569 12.466C54.2874 12.3473 53.9855 12.286 53.6807 12.2857C53.0649 12.285 52.4741 12.5328 52.0383 12.9744C51.6025 13.416 51.3573 14.0153 51.3567 14.6405C51.356 15.2656 51.6001 15.8654 52.035 16.3079C52.47 16.7504 53.0603 16.9994 53.676 17ZM51.352 8.22283H49.3687C48.0947 8.22283 47.4087 9.19412 47.4087 10.8098V16.6518H43.652V8.22283H42.056C40.7797 8.22283 40.096 9.19412 40.096 10.8098V16.6518H36.3393V5.10521H40.096V6.85828C40.712 5.49847 41.5567 5.10521 42.8097 5.10521H47.411V6.85828C48.027 5.49847 48.8693 5.10521 50.1223 5.10521H51.352V8.22283ZM35.518 11.7787H27.6803C27.8857 13.0722 28.6837 13.8113 30.0277 13.8113C31.031 13.8113 31.7357 13.3967 31.9643 12.6576L35.2893 13.6052C34.4703 15.6141 32.4427 16.8365 30.0277 16.8365C25.949 16.8365 24.08 13.6265 24.08 10.8785C24.08 8.17781 25.7203 4.94412 29.7967 4.94412C34.1273 4.94412 35.5623 8.22282 35.5623 10.6487C35.5623 11.1793 35.539 11.5252 35.5157 11.7787H35.518ZM31.8733 9.53999C31.78 8.54501 31.0753 7.6211 29.799 7.6211C28.6137 7.6211 27.909 8.15412 27.6803 9.53999H31.8733ZM17.5187 16.6494H20.8227L24.9457 5.10284H21.1657L19.159 11.8237L17.1103 5.10284H13.3467L17.5187 16.6494ZM2.11867 16.6494H5.85667V8.22046H9.41267V16.6494H13.125V5.10284H5.85667V4.3874C5.85667 3.60089 6.405 3.11761 7.27067 3.11761H9.41267V0H6.65C3.93867 0 2.11633 1.68673 2.11633 4.15761V5.10521H0V8.22283H2.11867V16.6518V16.6494Z" fill="#3FB011"/>
</svg>
