<svg width="30" height="33" viewBox="0 0 30 33" fill="none" xmlns="http://www.w3.org/2000/svg">
    <path d="M25.2554 32.3082H4.74461C4.4263 32.3111 4.11057 32.251 3.81556 32.1315C3.52055 32.0119 3.25209 31.8352 3.02562 31.6115C2.79914 31.3878 2.61912 31.1216 2.49591 30.8281C2.3727 30.5345 2.30873 30.2196 2.30768 29.9013V15.0005L14.8581 11.4697L27.6923 15.0005V29.9013C27.6923 31.2236 26.6077 32.3082 25.2554 32.3082Z" fill="#FCD53F"/>
    <path d="M27.6923 4.43904C27.6923 0.534427 23.025 -1.4525 20.2315 1.25097L15 6.32212L9.76961 1.25097C6.97499 -1.46519 2.30768 0.534427 2.30768 4.43904C2.30768 5.81558 3.41191 6.92327 4.77922 6.92327L15 9.42712L25.2208 6.92327C25.877 6.91871 26.505 6.65511 26.9678 6.18985C27.4307 5.7246 27.6911 5.09534 27.6923 4.43904Z" fill="#F8312F"/>
    <path d="M28.4562 6.92285H1.54269C0.692308 6.92285 0 7.61516 0 8.47131V13.4513C0 14.3075 0.692308 14.9998 1.54385 14.9998H28.4562C29.3077 14.9998 30 14.3075 30 13.4513V8.47131C30 7.61516 29.3077 6.92285 28.4562 6.92285Z" fill="#FFB02E"/>
    <path d="M15.0058 1.15381C13.0904 1.15381 11.5385 2.73458 11.5385 4.68458V32.3077H18.4616V4.68458C18.4731 2.73458 16.9223 1.15381 15.0058 1.15381Z" fill="#CA0B4A"/>
</svg>
