<svg width="24" height="24" viewBox="0 0 24 24" fill="none" xmlns="http://www.w3.org/2000/svg">
    <path d="M22.6798 1.32019C21.7989 0.439262 20.739 -0.00079975 19.5001 1.09106e-06H4.49993C3.26022 1.09106e-06 2.20031 0.440063 1.32019 1.32019C0.439262 2.20111 -0.00079975 3.26102 1.09106e-06 4.49993V19.5001C1.09106e-06 20.7398 0.440063 21.7997 1.32019 22.6798C2.20111 23.5607 3.26103 24.0008 4.49993 24H8.0004C8.22864 24 8.40042 23.992 8.51574 23.976C8.65005 23.9494 8.77127 23.8778 8.8593 23.773C8.97382 23.6528 9.03108 23.4786 9.03108 23.2504L9.02267 22.1873C9.01787 21.5098 9.01547 20.9732 9.01547 20.5776L8.65509 20.6401C8.42685 20.6817 8.13815 20.7001 7.78898 20.6953C7.42464 20.6884 7.06146 20.6518 6.70304 20.586C6.32116 20.5167 5.96174 20.356 5.65554 20.1175C5.33414 19.8745 5.09445 19.5392 4.96842 19.1565L4.81225 18.7961C4.68012 18.5121 4.5148 18.2448 4.31974 17.9997C4.0955 17.7082 3.86886 17.5104 3.63982 17.4063L3.53171 17.3282C3.45664 17.2738 3.38811 17.2109 3.32749 17.1408C3.2696 17.0756 3.22218 17.0019 3.18695 16.9222C3.15571 16.8485 3.18174 16.7884 3.26503 16.742C3.34832 16.6939 3.49968 16.6703 3.71911 16.6711L4.03143 16.7192C4.23965 16.76 4.49712 16.8845 4.80384 17.0927C5.11384 17.3041 5.3728 17.5819 5.56184 17.906C5.80209 18.332 6.0912 18.6576 6.42915 18.8826C6.76791 19.1069 7.10907 19.219 7.45263 19.219C7.79619 19.219 8.0933 19.193 8.34396 19.1409C8.58672 19.0906 8.82263 19.0115 9.0467 18.9054C9.1404 18.2079 9.39547 17.6714 9.8119 17.2958C9.27184 17.2424 8.73657 17.1484 8.21062 17.0147C7.69738 16.8739 7.20381 16.6692 6.74148 16.4056C6.25767 16.1422 5.83033 15.7863 5.48376 15.3581C5.15061 14.9417 4.87712 14.3951 4.6633 13.7184C4.45027 13.0409 4.34376 12.2593 4.34376 11.3735C4.34376 10.1138 4.75499 9.04069 5.57746 8.15416C5.19305 7.20677 5.22949 6.14485 5.68677 4.96842C5.98949 4.87392 6.43756 4.94399 7.03098 5.17864C7.62441 5.41328 8.05926 5.61349 8.33555 5.77927C8.61184 5.94744 8.83328 6.08839 8.99985 6.20211C9.97635 5.92984 10.9857 5.79322 11.9994 5.79609C13.0309 5.79609 14.0311 5.93143 15.0002 6.20211L15.5936 5.82732C16.05 5.55327 16.5315 5.3232 17.0315 5.1402C17.5833 4.93198 18.0053 4.87472 18.2976 4.96842C18.7661 6.14565 18.8073 7.20797 18.4213 8.15536C19.2446 9.04029 19.6562 10.1134 19.6562 11.3747C19.6562 12.2605 19.5493 13.0441 19.3355 13.7256C19.1225 14.4079 18.8466 14.9549 18.5078 15.3665C18.1542 15.7882 17.7252 16.1406 17.2429 16.4056C16.7384 16.6867 16.2487 16.8897 15.7738 17.0147C15.2478 17.1488 14.7126 17.2432 14.1725 17.297C14.713 17.7655 14.9837 18.5046 14.9845 19.5145V23.2504C14.9845 23.4266 15.0106 23.5695 15.0626 23.6793C15.0869 23.7319 15.1216 23.7792 15.1645 23.8182C15.2074 23.8572 15.2577 23.8871 15.3125 23.9063C15.427 23.9479 15.5287 23.9736 15.6176 23.9832C15.7065 23.9944 15.8338 23.9996 15.9996 23.9988H19.5001C20.7398 23.9988 21.7997 23.5587 22.6798 22.6786C23.5599 21.7985 24 20.7386 24 19.4989V4.49993C24 3.26022 23.5607 2.20031 22.6798 1.32019Z" fill="black"/>
</svg>
