<svg width="27" height="27" viewBox="0 0 27 27" fill="none" xmlns="http://www.w3.org/2000/svg">
    <g clip-path="url(#clip0_115_3190)">
        <path d="M9.4057 0.888173C6.70798 1.82404 4.38147 3.60034 2.7679 5.95616C1.15433 8.31199 0.338743 11.1232 0.440945 13.9768C0.543146 16.8304 1.55774 19.576 3.33571 21.8104C5.11368 24.0447 7.5613 25.65 10.3191 26.3905C12.5548 26.9674 14.8973 26.9928 17.145 26.4643C19.1812 26.007 21.0638 25.0286 22.6083 23.6251C24.2158 22.1198 25.3826 20.2047 25.9833 18.0859C26.6362 15.7818 26.7524 13.3587 26.3229 11.0026H13.7679V16.2107H21.0389C20.8936 17.0413 20.5822 17.8341 20.1233 18.5416C19.6645 19.2491 19.0676 19.8567 18.3684 20.3282C17.4806 20.9155 16.4797 21.3107 15.4301 21.4883C14.3774 21.6841 13.2976 21.6841 12.2449 21.4883C11.178 21.2677 10.1687 20.8274 9.28125 20.1953C7.85562 19.1861 6.78517 17.7525 6.22265 16.0989C5.65062 14.4143 5.65062 12.588 6.22265 10.9035C6.62307 9.72269 7.285 8.64758 8.15906 7.75841C9.15931 6.72217 10.4257 5.98146 11.8192 5.61755C13.2127 5.25364 14.6795 5.28059 16.0587 5.69544C17.1361 6.02617 18.1213 6.60402 18.9359 7.38294C19.7557 6.56731 20.5741 5.74958 21.3912 4.92973C21.813 4.48888 22.2729 4.06911 22.6884 3.6177C21.4451 2.46066 19.9857 1.56034 18.3937 0.968329C15.4948 -0.0842707 12.3229 -0.112558 9.4057 0.888173Z" fill="white"/>
        <path d="M9.4057 0.888221C12.3227 -0.11319 15.4946 -0.0856469 18.3937 0.966268C19.9859 1.5623 21.4447 2.46696 22.6863 3.6283C22.2645 4.07971 21.8194 4.50158 21.3891 4.94033C20.5706 5.75736 19.7529 6.57158 18.9359 7.38299C18.1213 6.60407 17.1361 6.02622 16.0587 5.69549C14.6799 5.27918 13.2132 5.25068 11.8193 5.6131C10.4254 5.97552 9.15829 6.71487 8.15695 7.75002C7.28289 8.6392 6.62096 9.7143 6.22054 10.8951L1.84781 7.50955C3.41298 4.40573 6.12298 2.03155 9.4057 0.888221Z" fill="#E33629"/>
        <path d="M0.687658 10.8632C0.922687 9.69837 1.31288 8.57035 1.84781 7.50928L6.22055 10.9033C5.64852 12.5878 5.64852 14.4141 6.22055 16.0987C4.76367 17.2237 3.3061 18.3543 1.84781 19.4905C0.508679 16.8249 0.100266 13.7878 0.687658 10.8632Z" fill="#F8BD00"/>
        <path d="M13.7679 11.0005H26.3229C26.7524 13.3565 26.6362 15.7796 25.9833 18.0838C25.3826 20.2026 24.2158 22.1176 22.6083 23.623C21.1971 22.5219 19.7796 21.4292 18.3684 20.3281C19.0681 19.8562 19.6652 19.2479 20.1241 18.5397C20.583 17.8314 20.8941 17.0378 21.0389 16.2064H13.7679C13.7658 14.4725 13.7679 12.7365 13.7679 11.0005Z" fill="#587DBD"/>
        <path d="M1.8457 19.4905C3.30398 18.3655 4.76156 17.2349 6.21844 16.0986C6.78208 17.7528 7.85406 19.1865 9.28125 20.195C10.1714 20.8242 11.1829 21.261 12.2513 21.4775C13.3039 21.6733 14.3837 21.6733 15.4364 21.4775C16.486 21.2999 17.4869 20.9047 18.3748 20.3174C19.7859 21.4185 21.2034 22.5111 22.6146 23.6122C21.0703 25.0165 19.1878 25.9956 17.1513 26.4536C14.9036 26.982 12.5612 26.9566 10.3254 26.3797C8.55711 25.9076 6.90541 25.0753 5.47383 23.935C3.95858 22.732 2.721 21.2159 1.8457 19.4905Z" fill="#319F43"/>
    </g>
    <defs>
        <clipPath id="clip0_115_3190">
            <rect width="27" height="27" fill="white"/>
        </clipPath>
    </defs>
</svg>
