<svg width="26" height="26" viewBox="0 0 26 26" fill="none" xmlns="http://www.w3.org/2000/svg">
    <path fill-rule="evenodd" clip-rule="evenodd" d="M10.581 2.15965C11.8393 1.17462 13.6044 1.16502 14.8734 2.13631L23.0463 8.39212C23.913 9.05555 24.4214 10.0848 24.4214 11.1763V21.08C24.4214 23.0164 22.8516 24.5861 20.9152 24.5861H4.78671C2.8503 24.5861 1.28052 23.0164 1.28052 21.08V11.1483C1.28052 10.0702 1.77651 9.05205 2.62544 8.38748L10.581 2.15965ZM15.6517 1.11947C13.9193 -0.206542 11.5095 -0.193436 9.79166 1.15134L1.83611 7.37917C0.677137 8.28645 0 9.67647 0 11.1483V21.08C0 23.7236 2.14308 25.8667 4.78671 25.8667H20.9152C23.5588 25.8667 25.7019 23.7236 25.7019 21.08V11.1763C25.7019 9.68616 25.0079 8.28101 23.8246 7.37528L15.6517 1.11947ZM9.42099 20.9882C9.06738 20.9882 8.78073 21.2749 8.78073 21.6285C8.78073 21.9821 9.06738 22.2687 9.42099 22.2687H16.2504C16.604 22.2687 16.8907 21.9821 16.8907 21.6285C16.8907 21.2749 16.604 20.9882 16.2504 20.9882H9.42099Z" fill="black"/>
</svg>