<svg width="26" height="26" viewBox="0 0 26 26" fill="none" xmlns="http://www.w3.org/2000/svg">
    <path fill-rule="evenodd" clip-rule="evenodd" d="M9.95964 1.20919L1.65942 7.70683C0.611978 8.5268 0 9.78307 0 11.1133V21.4752C0 23.8644 1.93686 25.8013 4.32609 25.8013H21.1533C23.5426 25.8013 25.4794 23.8644 25.4794 21.4752V11.1425C25.4794 9.79573 24.8522 8.52579 23.7828 7.70722L15.2558 1.18038C13.6901 -0.0180313 11.5122 -0.00618479 9.95964 1.20919ZM9.16115 21.1572C8.80979 21.1572 8.52496 21.4421 8.52496 21.7934C8.52496 22.1448 8.80979 22.4296 9.16115 22.4296H16.2229C16.5742 22.4296 16.859 22.1448 16.859 21.7934C16.859 21.4421 16.5742 21.1572 16.2229 21.1572H9.16115Z" fill="#940D06"/>
</svg>


