<svg width="32" height="27" viewBox="0 0 32 27" fill="none" xmlns="http://www.w3.org/2000/svg">
    <path fill-rule="evenodd" clip-rule="evenodd" d="M13.1413 1.28052H19.5439C19.948 1.28052 20.2756 1.60813 20.2756 2.01225V3.78059H12.4096V2.01225C12.4096 1.60813 12.7372 1.28052 13.1413 1.28052ZM11.1291 2.01225C11.1291 0.900914 12.03 0 13.1413 0H19.5439C20.6552 0 21.5562 0.900914 21.5562 2.01225V3.78059V3.96334H28.6904C30.4753 3.96334 31.9222 5.41026 31.9222 7.19513V22.8053C31.9222 24.5902 30.4753 26.0371 28.6904 26.0371H3.93369C2.14882 26.0371 0.701904 24.5902 0.701904 22.8053V7.19513C0.701904 5.41026 2.14883 3.96334 3.9337 3.96334H11.1291V3.78059V2.01225ZM28.6904 5.24386H3.9337C2.85604 5.24386 1.98243 6.11747 1.98243 7.19513V9.23665L16.0757 14.1954C16.3065 14.2766 16.5582 14.276 16.7887 14.1938L30.6417 9.24833V7.19513C30.6417 6.11747 29.7681 5.24386 28.6904 5.24386ZM1.98243 22.8053V10.5941L15.6507 15.4033C16.1585 15.582 16.7122 15.5807 17.2192 15.3998L30.6417 10.608V22.8053C30.6417 23.8829 29.7681 24.7566 28.6904 24.7566H3.93369C2.85604 24.7566 1.98243 23.8829 1.98243 22.8053Z" fill="black"/>
</svg>
