<svg width="32" height="26" viewBox="0 0 32 26" fill="none" xmlns="http://www.w3.org/2000/svg">
    <mask id="path-1-inside-1_99_492" fill="white">
        <path fill-rule="evenodd" clip-rule="evenodd" d="M13.7629 2.62441L18.8897 2.62441V3.9061H13.7629V2.62441ZM11.1385 3.9061V2.62441C11.1385 1.17499 12.3135 0 13.7629 0H18.8897C20.3391 0 21.5141 1.17499 21.5141 2.62441V3.9061H28.716C30.5025 3.9061 31.9507 5.35434 31.9507 7.14084V9.07519L16.2957 14.3733L0.701904 9.30892V7.14084C0.701904 5.35434 2.15015 3.9061 3.93665 3.9061H11.1385ZM16.2957 16.4485L31.9507 11.2301V22.7653C31.9507 24.5518 30.5025 26 28.716 26H3.93664C2.15015 26 0.701904 24.5518 0.701904 22.7653V11.3918L16.2957 16.4485Z"/>
    </mask>
    <path fill-rule="evenodd" clip-rule="evenodd" d="M13.7629 2.62441L18.8897 2.62441V3.9061H13.7629V2.62441ZM11.1385 3.9061V2.62441C11.1385 1.17499 12.3135 0 13.7629 0H18.8897C20.3391 0 21.5141 1.17499 21.5141 2.62441V3.9061H28.716C30.5025 3.9061 31.9507 5.35434 31.9507 7.14084V9.07519L16.2957 14.3733L0.701904 9.30892V7.14084C0.701904 5.35434 2.15015 3.9061 3.93665 3.9061H11.1385ZM16.2957 16.4485L31.9507 11.2301V22.7653C31.9507 24.5518 30.5025 26 28.716 26H3.93664C2.15015 26 0.701904 24.5518 0.701904 22.7653V11.3918L16.2957 16.4485Z" fill="#940D06"/>
    <path d="M18.8897 2.62441H20.1714V1.34272L18.8897 1.34272V2.62441ZM13.7629 2.62441V1.34272L12.4812 1.34272V2.62441H13.7629ZM18.8897 3.9061V5.18779H20.1714V3.9061H18.8897ZM13.7629 3.9061H12.4812V5.18779H13.7629V3.9061ZM11.1385 3.9061V5.18779H12.4202V3.9061H11.1385ZM21.5141 3.9061H20.2324V5.18779H21.5141V3.9061ZM31.9507 9.07519L32.3616 10.2892L33.2324 9.99452V9.07519H31.9507ZM16.2957 14.3733L15.8998 15.5924L16.304 15.7236L16.7066 15.5874L16.2957 14.3733ZM0.701904 9.30892H-0.579786V10.2403L0.306005 10.5279L0.701904 9.30892ZM31.9507 11.2301H33.2324V9.45188L31.5454 10.0142L31.9507 11.2301ZM16.2957 16.4485L15.9004 17.6677L16.3013 17.7976L16.701 17.6644L16.2957 16.4485ZM0.701904 11.3918L1.09725 10.1726L-0.579786 9.62881V11.3918H0.701904ZM18.8897 1.34272L13.7629 1.34272V3.9061L18.8897 3.9061V1.34272ZM20.1714 3.9061V2.62441H17.608V3.9061H20.1714ZM18.8897 2.62441H13.7629V5.18779H18.8897V2.62441ZM12.4812 2.62441V3.9061H15.0446V2.62441H12.4812ZM9.85684 2.62441V3.9061H12.4202V2.62441H9.85684ZM13.7629 -1.28169C11.6057 -1.28169 9.85684 0.467133 9.85684 2.62441H12.4202C12.4202 1.88285 13.0214 1.28169 13.7629 1.28169V-1.28169ZM18.8897 -1.28169H13.7629V1.28169H18.8897V-1.28169ZM22.7958 2.62441C22.7958 0.467131 21.047 -1.28169 18.8897 -1.28169V1.28169C19.6313 1.28169 20.2324 1.88285 20.2324 2.62441H22.7958ZM22.7958 3.9061V2.62441H20.2324V3.9061H22.7958ZM28.716 2.62441H21.5141V5.18779H28.716V2.62441ZM33.2324 7.14084C33.2324 4.64648 31.2104 2.62441 28.716 2.62441V5.18779C29.7946 5.18779 30.669 6.0622 30.669 7.14084H33.2324ZM33.2324 9.07519V7.14084H30.669V9.07519H33.2324ZM16.7066 15.5874L32.3616 10.2892L31.5399 7.86114L15.8849 13.1593L16.7066 15.5874ZM0.306005 10.5279L15.8998 15.5924L16.6916 13.1543L1.0978 8.08991L0.306005 10.5279ZM-0.579786 7.14084V9.30892H1.98359V7.14084H-0.579786ZM3.93665 2.62441C1.44229 2.62441 -0.579786 4.64649 -0.579786 7.14084H1.98359C1.98359 6.0622 2.85801 5.18779 3.93665 5.18779V2.62441ZM11.1385 2.62441H3.93665V5.18779H11.1385V2.62441ZM31.5454 10.0142L15.8904 15.2325L16.701 17.6644L32.356 12.446L31.5454 10.0142ZM33.2324 22.7653V11.2301H30.669V22.7653H33.2324ZM28.716 27.2817C31.2103 27.2817 33.2324 25.2596 33.2324 22.7653H30.669C30.669 23.8439 29.7946 24.7183 28.716 24.7183V27.2817ZM3.93664 27.2817H28.716V24.7183H3.93664V27.2817ZM-0.579786 22.7653C-0.579786 25.2596 1.44229 27.2817 3.93664 27.2817V24.7183C2.858 24.7183 1.98359 23.8439 1.98359 22.7653H-0.579786ZM-0.579786 11.3918V22.7653H1.98359V11.3918H-0.579786ZM16.6911 15.2293L1.09725 10.1726L0.306555 12.611L15.9004 17.6677L16.6911 15.2293Z" fill="#940D06" mask="url(#path-1-inside-1_99_492)"/>
</svg>
