<svg width="11" height="13" viewBox="0 0 11 13" fill="none" xmlns="http://www.w3.org/2000/svg">
    <path d="M4.34806 12.1789C4.71839 12.4715 5.10461 12.739 5.5 13C5.89624 12.7425 6.28059 12.4685 6.65194 12.1789C7.271 11.6922 7.8536 11.1644 8.39544 10.5994C9.64456 9.29148 11 7.39538 11 5.26695C11 4.57528 10.8577 3.89039 10.5813 3.25137C10.3049 2.61236 9.89981 2.03173 9.38909 1.54265C8.87836 1.05357 8.27205 0.665612 7.60476 0.400923C6.93747 0.136234 6.22227 0 5.5 0C4.77773 0 4.06253 0.136234 3.39524 0.400923C2.72795 0.665612 2.12163 1.05357 1.61091 1.54265C1.10019 2.03173 0.695063 2.61236 0.418663 3.25137C0.142262 3.89039 -1.07627e-08 4.57528 0 5.26695C0 7.39538 1.35544 9.2909 2.60456 10.5994C3.14638 11.1646 3.72898 11.692 4.34806 12.1789ZM5.5 7.1689C4.97325 7.1689 4.46808 6.96852 4.09561 6.61183C3.72314 6.25515 3.51389 5.77138 3.51389 5.26695C3.51389 4.76252 3.72314 4.27875 4.09561 3.92206C4.46808 3.56538 4.97325 3.365 5.5 3.365C6.02675 3.365 6.53192 3.56538 6.90439 3.92206C7.27686 4.27875 7.48611 4.76252 7.48611 5.26695C7.48611 5.77138 7.27686 6.25515 6.90439 6.61183C6.53192 6.96852 6.02675 7.1689 5.5 7.1689Z" fill="#858585"/>
</svg>
