<svg width="275" height="76" viewBox="0 0 275 76" fill="none" xmlns="http://www.w3.org/2000/svg">
    <path d="M44.3861 0H58.6613L41.7627 11.1514C41.4881 11.3579 41.2218 11.5316 40.9744 11.6716L41.7627 11.1514C44.0121 9.45986 46.8186 5.56901 44.3861 0Z" fill="white"/>
    <path d="M0.999931 69.1314H9.61893H9.79849V32.4109C10.6065 22.3554 18.9861 21.3379 22.9066 21.9065C19.6744 25.4259 16.0533 31.9919 14.6467 34.835C9.61893 46.6143 15.3649 52.3124 18.8664 53.689C23.7445 55.6343 35.5386 53.689 39.4263 42.5562C44.1667 28.9813 37.4511 20.2006 33.5007 17.5072L28.473 24.7795C30.6996 26.5751 31.6153 30.2561 31.7949 31.8722C32.585 41.2095 28.1438 44.7708 25.7796 45.6985C23.0562 46.716 17.8608 46.7041 18.8664 38.516C19.8719 30.328 32.0343 13.9758 37.9898 6.82324C34.4704 9.40894 30.538 13.4072 29.0117 15.0831C18.5252 11.42 11.8335 17.6867 9.79849 21.278V14.724H0.999931V69.1314Z" fill="white" stroke="white" stroke-width="0.179562"/>
    <path fill-rule="evenodd" clip-rule="evenodd" d="M47.2503 14.7094V54.7277H56.6179V14.7094H47.2503ZM73.5924 52.6293C76.7899 54.378 80.437 55.2523 84.5338 55.2523C88.6805 55.2523 92.3526 54.378 95.55 52.6293C98.7974 50.8308 101.32 48.3827 103.119 45.2852C104.968 42.1876 105.892 38.6654 105.892 34.7185C105.892 30.6718 104.968 27.1246 103.119 24.077C101.32 21.0294 98.7974 18.6313 95.55 16.8827C92.3526 15.1341 88.6805 14.2598 84.5338 14.2598C80.437 14.2598 76.7899 15.1341 73.5924 16.8827C70.395 18.6313 67.872 21.0544 66.0234 24.1519C64.1749 27.1995 63.2506 30.7217 63.2506 34.7185C63.2506 38.6654 64.1749 42.1876 66.0234 45.2852C67.872 48.3827 70.395 50.8308 73.5924 52.6293ZM90.6789 45.7348C88.8803 46.734 86.8319 47.2336 84.5338 47.2336C82.2855 47.2336 80.2621 46.734 78.4636 45.7348C76.715 44.7356 75.3161 43.2868 74.2669 41.3883C73.2177 39.4898 72.6931 37.2665 72.6931 34.7185C72.6931 32.1206 73.2177 29.8974 74.2669 28.0488C75.3161 26.1503 76.715 24.7015 78.4636 23.7023C80.2621 22.7031 82.3105 22.2035 84.6087 22.2035C86.8569 22.2035 88.8803 22.7031 90.6789 23.7023C92.4775 24.7015 93.8763 26.1503 94.8756 28.0488C95.9247 29.8974 96.4493 32.1206 96.4493 34.7185C96.4493 37.2665 95.9247 39.4898 94.8756 41.3883C93.8763 43.2868 92.4775 44.7356 90.6789 45.7348ZM121.403 14.7094H112.485V54.7277H121.852V34.4937C121.852 31.7959 122.302 29.5726 123.201 27.824C124.15 26.0254 125.474 24.6765 127.173 23.7772C128.872 22.8779 130.82 22.4283 133.018 22.4283C136.016 22.4283 138.339 23.3026 139.988 25.0512C141.687 26.7998 142.536 29.4477 142.536 32.9949V54.7277H151.903V31.7959C151.903 27.7491 151.179 24.4517 149.73 21.9037C148.281 19.3058 146.283 17.3823 143.735 16.1333C141.237 14.8843 138.389 14.2598 135.192 14.2598C131.694 14.2598 128.597 14.9592 125.899 16.3581C124.118 17.2657 122.619 18.4446 121.403 19.8949V14.7094ZM168.615 52.6293C171.962 54.378 175.859 55.2523 180.305 55.2523C183.802 55.2523 186.9 54.7027 189.598 53.6036C192.346 52.4545 194.619 50.8308 196.417 48.7324L191.396 42.962C189.998 44.4608 188.399 45.5599 186.6 46.2594C184.802 46.9588 182.778 47.3086 180.53 47.3086C177.932 47.3086 175.634 46.809 173.636 45.8098C171.637 44.8105 170.088 43.3867 168.989 41.5381C168.297 40.3733 167.822 39.0993 167.566 37.7162H198.965C199.015 37.2665 199.04 36.7919 199.04 36.2923C199.09 35.7927 199.115 35.343 199.115 34.9434C199.115 30.7467 198.241 27.0996 196.492 24.002C194.744 20.9045 192.346 18.5064 189.298 16.8077C186.251 15.1091 182.778 14.2598 178.881 14.2598C174.885 14.2598 171.312 15.1341 168.165 16.8827C165.067 18.6313 162.619 21.0544 160.821 24.1519C159.072 27.1995 158.198 30.7217 158.198 34.7185C158.198 38.6654 159.097 42.1876 160.896 45.2852C162.744 48.3827 165.317 50.8308 168.615 52.6293ZM167.482 31.4961C167.687 29.995 168.115 28.6461 168.764 27.4493C169.764 25.6507 171.113 24.2518 172.811 23.2526C174.56 22.2534 176.583 21.7538 178.881 21.7538C181.13 21.7538 183.103 22.2534 184.802 23.2526C186.55 24.2518 187.924 25.6258 188.923 27.3744C189.63 28.6109 190.074 29.9848 190.256 31.4961H167.482ZM212.868 52.6293C216.215 54.378 220.112 55.2523 224.559 55.2523C228.056 55.2523 231.154 54.7027 233.851 53.6036C236.599 52.4545 238.872 50.8308 240.671 48.7324L235.65 42.962C234.251 44.4608 232.652 45.5599 230.854 46.2594C229.055 46.9588 227.032 47.3086 224.784 47.3086C222.186 47.3086 219.887 46.809 217.889 45.8098C215.891 44.8105 214.342 43.3867 213.243 41.5381C212.55 40.3733 212.076 39.0993 211.82 37.7162H243.219C243.269 37.2665 243.294 36.7919 243.294 36.2923C243.344 35.7927 243.369 35.343 243.369 34.9434C243.369 30.7467 242.495 27.0996 240.746 24.002C238.997 20.9045 236.599 18.5064 233.552 16.8077C230.504 15.1091 227.032 14.2598 223.135 14.2598C219.138 14.2598 215.566 15.1341 212.418 16.8827C209.321 18.6313 206.873 21.0544 205.074 24.1519C203.326 27.1995 202.451 30.7217 202.451 34.7185C202.451 38.6654 203.351 42.1876 205.149 45.2852C206.998 48.3827 209.571 50.8308 212.868 52.6293ZM211.736 31.4961C211.941 29.995 212.368 28.6461 213.018 27.4493C214.017 25.6507 215.366 24.2518 217.065 23.2526C218.813 22.2534 220.837 21.7538 223.135 21.7538C225.383 21.7538 227.357 22.2534 229.055 23.2526C230.804 24.2518 232.178 25.6258 233.177 27.3744C233.883 28.6109 234.328 29.9848 234.51 31.4961H211.736ZM258.92 14.7094H250.002V54.7277H259.37V35.3181C259.37 31.2213 260.419 28.1488 262.517 26.1004C264.616 24.002 267.438 22.9529 270.985 22.9529C271.335 22.9529 271.685 22.9779 272.035 23.0278C272.384 23.0278 272.759 23.0778 273.159 23.1777V14.2598C269.312 14.2598 266.089 14.9592 263.491 16.3581C261.593 17.4002 260.07 18.8027 258.92 20.5656V14.7094Z" fill="white"/>
    <path d="M29.8065 70.1006V59.7265H32.2073V70.1006H29.8065ZM37.5662 70.1006V59.7265H39.5521L43.9685 67.0476H42.9163L47.2586 59.7265H49.2297L49.2593 70.1006H47.0067L46.9918 63.1796H47.4068L43.9389 69.0039H42.857L39.315 63.1796H39.8189V70.1006H37.5662ZM54.6175 70.1006V59.7265H56.6034L61.0198 67.0476H59.9676L64.3099 59.7265H66.281L66.3106 70.1006H64.058L64.0431 63.1796H64.4581L60.9902 69.0039H59.9083L56.3663 63.1796H56.8702V70.1006H54.6175ZM71.6689 70.1006V59.7265H74.0697V70.1006H71.6689ZM84.4378 70.2784C83.6178 70.2784 82.862 70.15 82.1704 69.8931C81.4886 69.6263 80.8909 69.2509 80.3771 68.7668C79.8732 68.2826 79.478 67.7145 79.1915 67.0625C78.9149 66.4104 78.7765 65.6941 78.7765 64.9135C78.7765 64.133 78.9149 63.4167 79.1915 62.7646C79.478 62.1125 79.8782 61.5444 80.3919 61.0603C80.9057 60.5762 81.5084 60.2057 82.2 59.9488C82.8916 59.682 83.6524 59.5487 84.4823 59.5487C85.4011 59.5487 86.2261 59.7018 86.9573 60.0081C87.6983 60.3144 88.3207 60.759 88.8246 61.3419L87.2833 62.7646C86.9079 62.3694 86.4978 62.078 86.0532 61.8902C85.6086 61.6926 85.1245 61.5938 84.6009 61.5938C84.097 61.5938 83.6376 61.6729 83.2226 61.831C82.8076 61.989 82.447 62.2163 82.1407 62.5127C81.8443 62.8091 81.6121 63.1598 81.4442 63.5649C81.2861 63.97 81.207 64.4195 81.207 64.9135C81.207 65.3977 81.2861 65.8423 81.4442 66.2474C81.6121 66.6524 81.8443 67.0081 82.1407 67.3144C82.447 67.6108 82.8027 67.838 83.2078 67.9961C83.6227 68.1542 84.0772 68.2332 84.5712 68.2332C85.0455 68.2332 85.5049 68.1591 85.9495 68.0109C86.404 67.8529 86.8436 67.591 87.2685 67.2255L88.6319 68.9594C88.0688 69.3843 87.4117 69.7103 86.6609 69.9376C85.9199 70.1648 85.1788 70.2784 84.4378 70.2784ZM88.6319 68.9594L86.4386 68.6482V64.7505H88.6319V68.9594ZM93.7591 70.1006V59.7265H98.1903C99.6328 59.7265 100.754 60.0624 101.554 60.7343C102.355 61.3962 102.755 62.3151 102.755 63.4908C102.755 64.2615 102.572 64.9284 102.207 65.4915C101.841 66.0448 101.322 66.4697 100.65 66.7661C99.9786 67.0625 99.1783 67.2107 98.2496 67.2107H95.0929L96.1599 66.1584V70.1006H93.7591ZM100.354 70.1006L97.7605 66.3363H100.324L102.948 70.1006H100.354ZM96.1599 66.4252L95.0929 65.2989H98.1162C98.8572 65.2989 99.4105 65.1408 99.776 64.8246C100.142 64.4986 100.324 64.054 100.324 63.4908C100.324 62.9178 100.142 62.4732 99.776 62.157C99.4105 61.8408 98.8572 61.6828 98.1162 61.6828H95.0929L96.1599 60.5416V66.4252ZM106.191 70.1006L110.814 59.7265H113.186L117.824 70.1006H115.305L111.511 60.9417H112.459L108.651 70.1006H106.191ZM108.502 67.8776L109.14 66.0547H114.475L115.127 67.8776H108.502ZM123.425 70.1006V61.6828H120.106V59.7265H129.146V61.6828H125.826V70.1006H123.425ZM133.335 70.1006V59.7265H135.736V70.1006H133.335ZM146.133 70.2784C145.313 70.2784 144.553 70.145 143.851 69.8783C143.159 69.6115 142.557 69.2361 142.043 68.752C141.539 68.2678 141.144 67.6997 140.857 67.0476C140.581 66.3956 140.442 65.6842 140.442 64.9135C140.442 64.1429 140.581 63.4315 140.857 62.7794C141.144 62.1274 141.544 61.5593 142.058 61.0751C142.572 60.591 143.174 60.2156 143.866 59.9488C144.558 59.682 145.308 59.5487 146.119 59.5487C146.939 59.5487 147.689 59.682 148.371 59.9488C149.063 60.2156 149.661 60.591 150.164 61.0751C150.678 61.5593 151.078 62.1274 151.365 62.7794C151.651 63.4216 151.795 64.133 151.795 64.9135C151.795 65.6842 151.651 66.4005 151.365 67.0625C151.078 67.7145 150.678 68.2826 150.164 68.7668C149.661 69.241 149.063 69.6115 148.371 69.8783C147.689 70.145 146.944 70.2784 146.133 70.2784ZM146.119 68.2332C146.583 68.2332 147.008 68.1542 147.393 67.9961C147.788 67.838 148.134 67.6108 148.43 67.3144C148.727 67.018 148.954 66.6673 149.112 66.2622C149.28 65.8571 149.364 65.4075 149.364 64.9135C149.364 64.4195 149.28 63.97 149.112 63.5649C148.954 63.1598 148.727 62.8091 148.43 62.5127C148.144 62.2163 147.803 61.989 147.408 61.831C147.013 61.6729 146.583 61.5938 146.119 61.5938C145.654 61.5938 145.224 61.6729 144.829 61.831C144.444 61.989 144.103 62.2163 143.807 62.5127C143.51 62.8091 143.278 63.1598 143.11 63.5649C142.952 63.97 142.873 64.4195 142.873 64.9135C142.873 65.3977 142.952 65.8472 143.11 66.2622C143.278 66.6673 143.505 67.018 143.792 67.3144C144.088 67.6108 144.434 67.838 144.829 67.9961C145.224 68.1542 145.654 68.2332 146.119 68.2332ZM156.496 70.1006V59.7265H158.482L164.603 67.1958H163.639V59.7265H166.01V70.1006H164.039L157.904 62.6312H158.867V70.1006H156.496ZM181.865 70.2784C181.035 70.2784 180.239 70.1697 179.478 69.9524C178.718 69.7251 178.105 69.4337 177.641 69.078L178.456 67.2699C178.901 67.5861 179.424 67.8479 180.027 68.0554C180.639 68.253 181.257 68.3518 181.879 68.3518C182.354 68.3518 182.734 68.3073 183.021 68.2184C183.317 68.1196 183.534 67.9862 183.673 67.8183C183.811 67.6503 183.88 67.4577 183.88 67.2403C183.88 66.9637 183.771 66.7463 183.554 66.5882C183.337 66.4203 183.05 66.2869 182.694 66.1881C182.339 66.0794 181.944 65.9806 181.509 65.8917C181.084 65.7929 180.654 65.6743 180.219 65.536C179.795 65.3977 179.404 65.2198 179.049 65.0025C178.693 64.7851 178.402 64.4986 178.174 64.1429C177.957 63.7872 177.848 63.3327 177.848 62.7794C177.848 62.1866 178.006 61.6482 178.323 61.164C178.649 60.67 179.133 60.2798 179.775 59.9933C180.427 59.6969 181.242 59.5487 182.22 59.5487C182.872 59.5487 183.515 59.6277 184.147 59.7858C184.779 59.934 185.337 60.1612 185.822 60.4675L185.081 62.2904C184.596 62.0137 184.112 61.8112 183.628 61.6828C183.144 61.5444 182.67 61.4753 182.205 61.4753C181.741 61.4753 181.361 61.5296 181.064 61.6383C180.768 61.747 180.555 61.8902 180.427 62.0681C180.299 62.236 180.234 62.4336 180.234 62.6609C180.234 62.9276 180.343 63.145 180.56 63.313C180.778 63.471 181.064 63.5995 181.42 63.6983C181.776 63.7971 182.166 63.8959 182.591 63.9947C183.025 64.0935 183.455 64.2071 183.88 64.3356C184.315 64.464 184.71 64.6369 185.066 64.8543C185.421 65.0716 185.708 65.3581 185.925 65.7138C186.152 66.0695 186.266 66.5191 186.266 67.0625C186.266 67.6454 186.103 68.1789 185.777 68.663C185.451 69.1472 184.962 69.5374 184.31 69.8338C183.668 70.1302 182.853 70.2784 181.865 70.2784ZM190.804 70.1006V59.7265H198.643V61.6531H193.19V68.174H198.836V70.1006H190.804ZM193.012 65.7731V63.9058H198.006V65.7731H193.012ZM203.643 70.1006V59.7265H208.074C209.517 59.7265 210.638 60.0624 211.439 60.7343C212.239 61.3962 212.639 62.3151 212.639 63.4908C212.639 64.2615 212.456 64.9284 212.091 65.4915C211.725 66.0448 211.206 66.4697 210.535 66.7661C209.863 67.0625 209.063 67.2107 208.134 67.2107H204.977L206.044 66.1584V70.1006H203.643ZM210.238 70.1006L207.645 66.3363H210.209L212.832 70.1006H210.238ZM206.044 66.4252L204.977 65.2989H208C208.741 65.2989 209.295 65.1408 209.66 64.8246C210.026 64.4986 210.209 64.054 210.209 63.4908C210.209 62.9178 210.026 62.4732 209.66 62.157C209.295 61.8408 208.741 61.6828 208 61.6828H204.977L206.044 60.5416V66.4252ZM220.55 70.1006L216.075 59.7265H218.668L222.581 68.915H221.054L225.026 59.7265H227.412L222.922 70.1006H220.55ZM231.175 70.1006V59.7265H233.576V70.1006H231.175ZM243.9 70.2784C243.099 70.2784 242.354 70.15 241.662 69.8931C240.98 69.6263 240.387 69.2509 239.884 68.7668C239.38 68.2826 238.984 67.7145 238.698 67.0625C238.421 66.4104 238.283 65.6941 238.283 64.9135C238.283 64.133 238.421 63.4167 238.698 62.7646C238.984 62.1125 239.38 61.5444 239.884 61.0603C240.397 60.5762 240.995 60.2057 241.677 59.9488C242.358 59.682 243.104 59.5487 243.915 59.5487C244.814 59.5487 245.624 59.7067 246.345 60.0229C247.076 60.3292 247.689 60.7837 248.183 61.3863L246.642 62.8091C246.286 62.404 245.891 62.1027 245.456 61.9051C245.021 61.6976 244.547 61.5938 244.033 61.5938C243.549 61.5938 243.104 61.6729 242.699 61.831C242.294 61.989 241.944 62.2163 241.647 62.5127C241.351 62.8091 241.119 63.1598 240.951 63.5649C240.792 63.97 240.713 64.4195 240.713 64.9135C240.713 65.4075 240.792 65.8571 240.951 66.2622C241.119 66.6673 241.351 67.018 241.647 67.3144C241.944 67.6108 242.294 67.838 242.699 67.9961C243.104 68.1542 243.549 68.2332 244.033 68.2332C244.547 68.2332 245.021 68.1344 245.456 67.9368C245.891 67.7294 246.286 67.4181 246.642 67.0032L248.183 68.4259C247.689 69.0286 247.076 69.488 246.345 69.8042C245.624 70.1203 244.809 70.2784 243.9 70.2784ZM252.556 70.1006V59.7265H260.396V61.6531H254.942V68.174H260.589V70.1006H252.556ZM254.764 65.7731V63.9058H259.759V65.7731H254.764ZM268.805 70.2784C267.975 70.2784 267.179 70.1697 266.419 69.9524C265.658 69.7251 265.045 69.4337 264.581 69.078L265.396 67.2699C265.841 67.5861 266.364 67.8479 266.967 68.0554C267.58 68.253 268.197 68.3518 268.819 68.3518C269.294 68.3518 269.674 68.3073 269.961 68.2184C270.257 68.1196 270.474 67.9862 270.613 67.8183C270.751 67.6503 270.82 67.4577 270.82 67.2403C270.82 66.9637 270.712 66.7463 270.494 66.5882C270.277 66.4203 269.99 66.2869 269.635 66.1881C269.279 66.0794 268.884 65.9806 268.449 65.8917C268.024 65.7929 267.594 65.6743 267.16 65.536C266.735 65.3977 266.345 65.2198 265.989 65.0025C265.633 64.7851 265.342 64.4986 265.114 64.1429C264.897 63.7872 264.788 63.3327 264.788 62.7794C264.788 62.1866 264.946 61.6482 265.263 61.164C265.589 60.67 266.073 60.2798 266.715 59.9933C267.367 59.6969 268.182 59.5487 269.16 59.5487C269.812 59.5487 270.455 59.6277 271.087 59.7858C271.719 59.934 272.278 60.1612 272.762 60.4675L272.021 62.2904C271.537 62.0137 271.052 61.8112 270.568 61.6828C270.084 61.5444 269.61 61.4753 269.146 61.4753C268.681 61.4753 268.301 61.5296 268.004 61.6383C267.708 61.747 267.496 61.8902 267.367 62.0681C267.239 62.236 267.174 62.4336 267.174 62.6609C267.174 62.9276 267.283 63.145 267.5 63.313C267.718 63.471 268.004 63.5995 268.36 63.6983C268.716 63.7971 269.106 63.8959 269.531 63.9947C269.966 64.0935 270.395 64.2071 270.82 64.3356C271.255 64.464 271.65 64.6369 272.006 64.8543C272.361 65.0716 272.648 65.3581 272.865 65.7138C273.093 66.0695 273.206 66.5191 273.206 67.0625C273.206 67.6454 273.043 68.1789 272.717 68.663C272.391 69.1472 271.902 69.5374 271.25 69.8338C270.608 70.1302 269.793 70.2784 268.805 70.2784Z" fill="white"/>
</svg>
