<svg width="46" height="38" viewBox="0 0 46 38" fill="none" xmlns="http://www.w3.org/2000/svg">
    <path d="M40.3902 11.5152C41.878 11.5152 43.3049 10.9086 44.3569 9.8288C45.409 8.74904 46 7.28458 46 5.75758C46 4.23057 45.409 2.76611 44.3569 1.68635C43.3049 0.6066 41.878 0 40.3902 0C38.9024 0 37.4756 0.6066 36.4235 1.68635C35.3715 2.76611 34.7805 4.23057 34.7805 5.75758C34.7805 7.28458 35.3715 8.74904 36.4235 9.8288C37.4756 10.9086 38.9024 11.5152 40.3902 11.5152ZM5.89024 3.45455H31.6974C31.5089 4.20692 31.4139 4.98073 31.4146 5.75758C31.4136 7.21966 31.752 8.66096 32.402 9.96201C33.0519 11.2631 33.9946 12.3864 35.1519 13.239L21.3171 21.1015L0.0201953 8.99794C0.142901 7.48671 0.814506 6.078 1.90181 5.0512C2.98912 4.0244 4.41271 3.45451 5.89024 3.45455ZM21.9925 24.5814L39.2638 14.8972C40.3907 15.041 41.5339 14.9668 42.6341 14.6784V31.9545C42.6341 35.2939 39.9976 38 36.7439 38H5.89024C4.32805 38 2.82985 37.3631 1.72521 36.2293C0.620577 35.0956 0 33.5579 0 31.9545V13.0075L20.6417 24.5814L20.7841 24.6516C20.9778 24.7334 21.1869 24.7697 21.396 24.7577C21.605 24.7458 21.8089 24.6848 21.9925 24.5814Z" fill="white"/>
</svg>
