<svg width="23" height="24" viewBox="0 0 23 24" fill="none" xmlns="http://www.w3.org/2000/svg">
    <path d="M21.7391 19.0909C21.783 18.7286 21.783 18.3623 21.7391 18L22.8967 17.1055C23.0069 17.0291 23.0289 16.9091 22.9628 16.7564L21.8604 14.88C21.7943 14.76 21.651 14.7273 21.5297 14.76L20.1517 15.2727C19.843 15.0873 19.5674 14.9018 19.2257 14.7709L19.0162 13.32C19.0057 13.2555 18.972 13.1968 18.9214 13.1548C18.8709 13.1127 18.8067 13.0901 18.7406 13.0909H16.5359C16.4036 13.0909 16.2823 13.1891 16.2603 13.32L16.0618 14.7709C15.7091 14.9018 15.4335 15.0873 15.1248 15.2727L13.7799 14.76C13.6366 14.7273 13.4822 14.76 13.4161 14.88L12.3137 16.7564C12.2476 16.9091 12.2806 17.0291 12.3798 17.1055L13.5484 18C13.5263 18.1855 13.5043 18.3709 13.5043 18.5455C13.5043 18.72 13.5263 18.9055 13.5484 19.0909L12.3798 19.9855C12.2806 20.0618 12.2476 20.2145 12.3137 20.3345L13.4161 22.2218C13.4822 22.3636 13.6366 22.3636 13.7799 22.3636L15.1248 21.7855C15.4335 22.0036 15.7091 22.1891 16.0618 22.3309L16.2603 23.7709C16.2823 23.9018 16.4036 24 16.5359 24H18.7406C18.8839 24 18.9942 23.9018 19.0162 23.7709L19.2257 22.3309C19.5674 22.1891 19.843 22.0036 20.1517 21.7855L21.5297 22.3636C21.651 22.3636 21.7943 22.3636 21.8604 22.2218L22.9628 20.3345C23.0289 20.2145 23.0069 20.0618 22.8967 19.9855L21.7391 19.0909ZM17.6382 20.4545C16.58 20.4545 15.7091 19.6036 15.7091 18.5455C15.7091 17.4873 16.58 16.6364 17.6382 16.6364C18.6965 16.6364 19.5674 17.4873 19.5674 18.5455C19.5674 19.6036 18.7076 20.4545 17.6382 20.4545ZM10.0097 19.6364H0V18.5455L2.20478 16.3636V9.81818C2.20478 6.43636 4.40956 3.49091 7.71673 2.50909V2.18182C7.71673 0.981818 8.70889 0 9.92151 0C11.1341 0 12.1263 0.981818 12.1263 2.18182V2.50909C15.4335 3.49091 17.6382 6.43636 17.6382 9.81818V10.9091C16.8776 10.9091 16.128 11.0291 15.4335 11.2255V9.81818C15.4335 6.76364 13.0082 4.36364 9.92151 4.36364C6.83482 4.36364 4.40956 6.76364 4.40956 9.81818V17.4545H10.0097C9.95459 17.8145 9.92151 18.1745 9.92151 18.5455C9.92151 18.9164 9.95459 19.2764 10.0097 19.6364ZM10.2522 20.7273C10.4727 21.3818 10.7373 22.0036 11.09 22.5709C10.7483 22.7782 10.3514 22.9091 9.92151 22.9091C8.70889 22.9091 7.71673 21.9273 7.71673 20.7273H10.2522Z" fill="black"/>
</svg>
