<svg width="27" height="26" viewBox="0 0 27 26" fill="none" xmlns="http://www.w3.org/2000/svg">
    <path fill-rule="evenodd" clip-rule="evenodd" d="M12.4303 1.25747H21.9254C22.4529 1.25747 22.8805 1.6851 22.8805 2.2126V12.1226H18.3198C18.2099 12.1226 18.1007 12.1173 17.9925 12.1069V6.20168C17.9925 4.83637 16.8857 3.72958 15.5204 3.72958H11.3628V2.32497C11.3628 1.73541 11.8407 1.25747 12.4303 1.25747ZM10.2391 3.72958V2.32497C10.2391 1.11482 11.2201 0.133789 12.4303 0.133789H21.9254C23.0735 0.133789 24.0042 1.06451 24.0042 2.2126V12.2921C25.3744 12.7407 26.364 14.0297 26.364 15.5498V22.4389C26.364 24.3317 24.8296 25.8662 22.9368 25.8662H4.17126C2.27845 25.8662 0.744019 24.3317 0.744019 22.4389V11.3706C0.744019 9.47783 2.27845 7.9434 4.17126 7.9434H11.8322C12.9549 7.9434 14.0065 8.4933 14.647 9.41538L15.505 10.6506C15.8552 11.1548 16.3283 11.5477 16.8688 11.8003V6.20168C16.8688 5.45697 16.2651 4.85326 15.5204 4.85326H5.18246C4.5929 4.85326 4.11496 5.3312 4.11496 5.92076V7.94318C3.72138 7.94319 3.3433 8.00953 2.99128 8.13164V5.92076C2.99128 4.7106 3.97231 3.72958 5.18246 3.72958H10.2391ZM1.8677 11.3706V22.4389C1.8677 23.7111 2.89904 24.7425 4.17126 24.7425H22.9368C24.209 24.7425 25.2403 23.7111 25.2403 22.4389V15.5498C25.2403 14.2776 24.209 13.2463 22.9368 13.2463H18.3198C16.829 13.2463 15.4327 12.5161 14.5821 11.2917L13.7241 10.0564C13.2936 9.43669 12.5868 9.06709 11.8322 9.06709H4.17126C2.89904 9.06709 1.8677 10.0984 1.8677 11.3706ZM5.68812 17.0452C5.68812 16.6418 6.01513 16.3148 6.41851 16.3148H11.1942C11.5976 16.3148 11.9246 16.6418 11.9246 17.0452C11.9246 17.4486 11.5976 17.7756 11.1942 17.7756H6.41851C6.01513 17.7756 5.68812 17.4486 5.68812 17.0452ZM6.41851 19.4608C6.01513 19.4608 5.68812 19.7878 5.68812 20.1912C5.68812 20.5946 6.01513 20.9216 6.41851 20.9216H11.1942C11.5976 20.9216 11.9246 20.5946 11.9246 20.1912C11.9246 19.7878 11.5976 19.4608 11.1942 19.4608H6.41851Z" fill="black"/>
</svg>
