<svg width="27" height="26" viewBox="0 0 27 26" fill="none" xmlns="http://www.w3.org/2000/svg">
    <mask id="path-1-inside-1_103_997" fill="white">
        <path fill-rule="evenodd" clip-rule="evenodd" d="M17.3682 2.15172H11.3665C11.3966 0.958246 12.3735 0 13.5742 0H23.144C24.3011 0 25.2391 0.938031 25.2391 2.09515V11.2763C24.6678 10.858 23.963 10.611 23.2006 10.611H20.6525V5.43601C20.6525 3.62214 19.182 2.15172 17.3682 2.15172ZM6.32614 3.45458C5.10648 3.45458 4.11774 4.44332 4.11774 5.66299V6.87097C4.54974 6.67664 5.0289 6.56852 5.53331 6.56852H13.2545C14.386 6.56852 15.4458 7.12274 16.0913 8.05206L16.9561 9.29699C17.4945 10.072 18.3209 10.5861 19.2368 10.7355V5.94611C19.2368 4.57008 18.1213 3.45458 16.7453 3.45458H6.32614ZM0.833496 22.4236V11.2684C0.833496 9.36068 2.37998 7.8142 4.28766 7.8142H12.0088C13.1404 7.8142 14.2001 8.36842 14.8457 9.29775L15.7105 10.5427C16.356 11.472 17.4158 12.0262 18.5474 12.0262H23.2006C25.1083 12.0262 26.6548 13.5727 26.6548 15.4804V22.4236C26.6548 24.3313 25.1083 25.8778 23.2006 25.8778H4.28766C2.37998 25.8778 0.833496 24.3313 0.833496 22.4236ZM6.55274 16.195C6.14618 16.195 5.8166 16.5246 5.8166 16.9312C5.8166 17.3377 6.14618 17.6673 6.55274 17.6673H11.3659C11.7725 17.6673 12.1021 17.3377 12.1021 16.9312C12.1021 16.5246 11.7725 16.195 11.3659 16.195H6.55274ZM5.8166 20.1023C5.8166 19.6958 6.14618 19.3662 6.55274 19.3662H11.3659C11.7725 19.3662 12.1021 19.6958 12.1021 20.1023C12.1021 20.5089 11.7725 20.8384 11.3659 20.8384H6.55274C6.14618 20.8384 5.8166 20.5089 5.8166 20.1023Z"/>
    </mask>
    <path fill-rule="evenodd" clip-rule="evenodd" d="M17.3682 2.15172H11.3665C11.3966 0.958246 12.3735 0 13.5742 0H23.144C24.3011 0 25.2391 0.938031 25.2391 2.09515V11.2763C24.6678 10.858 23.963 10.611 23.2006 10.611H20.6525V5.43601C20.6525 3.62214 19.182 2.15172 17.3682 2.15172ZM6.32614 3.45458C5.10648 3.45458 4.11774 4.44332 4.11774 5.66299V6.87097C4.54974 6.67664 5.0289 6.56852 5.53331 6.56852H13.2545C14.386 6.56852 15.4458 7.12274 16.0913 8.05206L16.9561 9.29699C17.4945 10.072 18.3209 10.5861 19.2368 10.7355V5.94611C19.2368 4.57008 18.1213 3.45458 16.7453 3.45458H6.32614ZM0.833496 22.4236V11.2684C0.833496 9.36068 2.37998 7.8142 4.28766 7.8142H12.0088C13.1404 7.8142 14.2001 8.36842 14.8457 9.29775L15.7105 10.5427C16.356 11.472 17.4158 12.0262 18.5474 12.0262H23.2006C25.1083 12.0262 26.6548 13.5727 26.6548 15.4804V22.4236C26.6548 24.3313 25.1083 25.8778 23.2006 25.8778H4.28766C2.37998 25.8778 0.833496 24.3313 0.833496 22.4236ZM6.55274 16.195C6.14618 16.195 5.8166 16.5246 5.8166 16.9312C5.8166 17.3377 6.14618 17.6673 6.55274 17.6673H11.3659C11.7725 17.6673 12.1021 17.3377 12.1021 16.9312C12.1021 16.5246 11.7725 16.195 11.3659 16.195H6.55274ZM5.8166 20.1023C5.8166 19.6958 6.14618 19.3662 6.55274 19.3662H11.3659C11.7725 19.3662 12.1021 19.6958 12.1021 20.1023C12.1021 20.5089 11.7725 20.8384 11.3659 20.8384H6.55274C6.14618 20.8384 5.8166 20.5089 5.8166 20.1023Z" fill="#940D06"/>
    <path d="M11.3665 2.15172L10.2344 2.12319L10.2051 3.28423H11.3665V2.15172ZM25.2391 11.2763L24.5701 12.1901L26.3716 13.5092V11.2763H25.2391ZM20.6525 10.611H19.52V11.7435H20.6525V10.611ZM4.11774 6.87097H2.98523V8.62223L4.58235 7.90379L4.11774 6.87097ZM16.0913 8.05206L17.0215 7.40596V7.40596L16.0913 8.05206ZM16.9561 9.29699L16.026 9.94309L16.026 9.9431L16.9561 9.29699ZM19.2368 10.7355L19.0545 11.8532L20.3693 12.0677V10.7355H19.2368ZM14.8457 9.29775L13.9156 9.94385L14.8457 9.29775ZM15.7105 10.5427L16.6406 9.89657H16.6406L15.7105 10.5427ZM11.3665 3.28423H17.3682V1.0192H11.3665V3.28423ZM13.5742 -1.13251C11.7576 -1.13251 10.2799 0.317117 10.2344 2.12319L12.4987 2.18024C12.5133 1.59937 12.9894 1.13251 13.5742 1.13251V-1.13251ZM23.144 -1.13251H13.5742V1.13251H23.144V-1.13251ZM26.3716 2.09515C26.3716 0.312561 24.9266 -1.13251 23.144 -1.13251V1.13251C23.6756 1.13251 24.1066 1.5635 24.1066 2.09515H26.3716ZM26.3716 11.2763V2.09515H24.1066V11.2763H26.3716ZM23.2006 11.7435C23.7144 11.7435 24.1863 11.9091 24.5701 12.1901L25.9082 10.3626C25.1493 9.80688 24.2116 9.47845 23.2006 9.47845V11.7435ZM20.6525 11.7435H23.2006V9.47845H20.6525V11.7435ZM19.52 5.43601V10.611H21.785V5.43601H19.52ZM17.3682 3.28423C18.5566 3.28423 19.52 4.24761 19.52 5.43601H21.785C21.785 2.99667 19.8075 1.0192 17.3682 1.0192V3.28423ZM5.25026 5.66299C5.25026 5.06879 5.73195 4.5871 6.32614 4.5871V2.32207C4.48101 2.32207 2.98523 3.81785 2.98523 5.66299H5.25026ZM5.25026 6.87097V5.66299H2.98523V6.87097H5.25026ZM5.53331 5.43601C4.8656 5.43601 4.22834 5.57939 3.65314 5.83814L4.58235 7.90379C4.87114 7.77388 5.19219 7.70103 5.53331 7.70103V5.43601ZM13.2545 5.43601H5.53331V7.70103H13.2545V5.43601ZM17.0215 7.40596C16.1643 6.17193 14.757 5.43601 13.2545 5.43601V7.70103C14.015 7.70103 14.7273 8.07354 15.1612 8.69817L17.0215 7.40596ZM17.8862 8.65088L17.0215 7.40596L15.1612 8.69817L16.026 9.94309L17.8862 8.65088ZM19.4191 9.61776C18.8035 9.51735 18.248 9.17169 17.8862 8.65088L16.026 9.9431C16.7409 10.9723 17.8383 11.6549 19.0545 11.8532L19.4191 9.61776ZM18.1043 5.94611V10.7355H20.3693V5.94611H18.1043ZM16.7453 4.5871C17.4958 4.5871 18.1043 5.19555 18.1043 5.94611H20.3693C20.3693 3.94461 18.7468 2.32207 16.7453 2.32207V4.5871ZM6.32614 4.5871H16.7453V2.32207H6.32614V4.5871ZM-0.299017 11.2684V22.4236H1.96601V11.2684H-0.299017ZM4.28766 6.68169C1.75451 6.68169 -0.299017 8.73521 -0.299017 11.2684H1.96601C1.96601 9.98615 3.00545 8.94672 4.28766 8.94672V6.68169ZM12.0088 6.68169H4.28766V8.94672H12.0088V6.68169ZM15.7758 8.65164C14.9186 7.41761 13.5114 6.68169 12.0088 6.68169V8.94672C12.7694 8.94672 13.4817 9.31922 13.9156 9.94385L15.7758 8.65164ZM16.6406 9.89657L15.7758 8.65164L13.9156 9.94385L14.7804 11.1888L16.6406 9.89657ZM18.5474 10.8937C17.7868 10.8937 17.0745 10.5212 16.6406 9.89657L14.7804 11.1888C15.6376 12.4228 17.0448 13.1587 18.5474 13.1587V10.8937ZM23.2006 10.8937H18.5474V13.1587H23.2006V10.8937ZM27.7873 15.4804C27.7873 12.9472 25.7338 10.8937 23.2006 10.8937V13.1587C24.4829 13.1587 25.5223 14.1982 25.5223 15.4804H27.7873ZM27.7873 22.4236V15.4804H25.5223V22.4236H27.7873ZM23.2006 27.0103C25.7338 27.0103 27.7873 24.9568 27.7873 22.4236H25.5223C25.5223 23.7058 24.4829 24.7453 23.2006 24.7453V27.0103ZM4.28766 27.0103H23.2006V24.7453H4.28766V27.0103ZM-0.299017 22.4236C-0.299017 24.9568 1.75451 27.0103 4.28766 27.0103V24.7453C3.00545 24.7453 1.96601 23.7058 1.96601 22.4236H-0.299017ZM6.94912 16.9312C6.94912 17.1501 6.77165 17.3276 6.55274 17.3276V15.0625C5.52071 15.0625 4.68409 15.8991 4.68409 16.9312H6.94912ZM6.55274 16.5348C6.77165 16.5348 6.94912 16.7123 6.94912 16.9312H4.68409C4.68409 17.9632 5.52071 18.7998 6.55274 18.7998V16.5348ZM11.3659 16.5348H6.55274V18.7998H11.3659V16.5348ZM10.9695 16.9312C10.9695 16.7123 11.147 16.5348 11.3659 16.5348V18.7998C12.398 18.7998 13.2346 17.9632 13.2346 16.9312H10.9695ZM11.3659 17.3276C11.147 17.3276 10.9695 17.1501 10.9695 16.9312H13.2346C13.2346 15.8991 12.3979 15.0625 11.3659 15.0625V17.3276ZM6.55274 17.3276H11.3659V15.0625H6.55274V17.3276ZM6.55274 18.2337C5.52071 18.2337 4.68409 19.0703 4.68409 20.1023H6.94912C6.94912 20.3212 6.77165 20.4987 6.55274 20.4987V18.2337ZM11.3659 18.2337H6.55274V20.4987H11.3659V18.2337ZM13.2346 20.1023C13.2346 19.0703 12.3979 18.2337 11.3659 18.2337V20.4987C11.147 20.4987 10.9695 20.3212 10.9695 20.1023H13.2346ZM11.3659 21.971C12.3979 21.971 13.2346 21.1343 13.2346 20.1023H10.9695C10.9695 19.8834 11.147 19.7059 11.3659 19.7059V21.971ZM6.55274 21.971H11.3659V19.7059H6.55274V21.971ZM4.68409 20.1023C4.68409 21.1343 5.52071 21.971 6.55274 21.971V19.7059C6.77165 19.7059 6.94912 19.8834 6.94912 20.1023H4.68409Z" fill="#940D06" mask="url(#path-1-inside-1_103_997)"/>
</svg>
