<svg width="26" height="22" viewBox="0 0 26 22" fill="none" xmlns="http://www.w3.org/2000/svg">
    <path d="M9.96496 0C8.64353 0 7.37621 0.515078 6.44181 1.43192C5.50742 2.34877 4.98248 3.59227 4.98248 4.88889C4.98248 6.1855 5.50742 7.42901 6.44181 8.34586C7.37621 9.2627 8.64353 9.77778 9.96496 9.77778C11.2864 9.77778 12.5537 9.2627 13.4881 8.34586C14.4225 7.42901 14.9474 6.1855 14.9474 4.88889C14.9474 3.59227 14.4225 2.34877 13.4881 1.43192C12.5537 0.515078 11.2864 0 9.96496 0ZM9.96496 2.44444C10.6257 2.44444 11.2593 2.70198 11.7265 3.16041C12.1937 3.61883 12.4562 4.24058 12.4562 4.88889C12.4562 5.5372 12.1937 6.15895 11.7265 6.61737C11.2593 7.07579 10.6257 7.33333 9.96496 7.33333C9.30424 7.33333 8.67059 7.07579 8.20339 6.61737C7.73619 6.15895 7.47372 5.5372 7.47372 4.88889C7.47372 4.24058 7.73619 3.61883 8.20339 3.16041C8.67059 2.70198 9.30424 2.44444 9.96496 2.44444ZM18.6843 9.77778C18.485 9.77778 18.3854 9.87556 18.3854 10.0711L18.0615 11.6111C17.7875 11.8311 17.3889 12.0267 17.0899 12.2222L15.4955 11.6111C15.3959 11.6111 15.1966 11.6111 15.0969 11.7333L13.9011 13.8844C13.8015 13.9822 13.8015 14.1778 14.0008 14.2756L15.2962 15.2778V16.5L14.0008 17.5022C13.9011 17.6 13.8015 17.7956 13.9011 17.8933L15.0969 20.0444C15.1966 20.1667 15.3959 20.1667 15.4955 20.1667L17.0899 19.5556C17.3889 19.7511 17.7875 19.9467 18.0615 20.1667L18.3854 21.7067C18.3854 21.9022 18.485 22 18.6843 22H21.1755C21.2752 22 21.4745 21.9022 21.4745 21.7067L21.6738 20.1667C22.0724 19.9467 22.471 19.7511 22.7699 19.5556L24.2896 20.1667C24.464 20.1667 24.6633 20.1667 24.6633 20.0444L25.9587 17.8933C26.0584 17.7956 25.9587 17.6 25.8591 17.5022L24.5636 16.5V15.2778L25.8591 14.2756C25.9587 14.1778 26.0584 13.9822 25.9587 13.8844L24.6633 11.7333C24.6633 11.6111 24.464 11.6111 24.2896 11.6111L22.7699 12.2222C22.471 12.0267 22.0724 11.8311 21.6738 11.6111L21.4745 10.0711C21.4745 9.87556 21.2752 9.77778 21.1755 9.77778H18.6843ZM9.96496 11C6.63916 11 0 12.6256 0 15.8889V19.5556H12.0451C11.6964 18.8344 11.4472 18.0522 11.3227 17.2333H2.36668V15.8889C2.36668 15.1067 6.26547 13.3222 9.96496 13.3222C10.5006 13.3222 11.0487 13.3711 11.5843 13.4444C11.8334 12.6622 12.1697 11.9289 12.6057 11.2567C11.6341 11.0978 10.7123 11 9.96496 11ZM19.9797 14.0556C20.9762 14.0556 21.7984 14.8622 21.7984 15.9378C21.7984 16.9156 20.9762 17.7222 19.9797 17.7222C18.8836 17.7222 18.0615 16.9156 18.0615 15.9378C18.0615 14.8622 18.8836 14.0556 19.9797 14.0556Z" fill="black"/>
</svg>
