<svg width="18" height="18" viewBox="0 0 18 18" fill="none" xmlns="http://www.w3.org/2000/svg">
    <path d="M11.3203 0H6.67892L6.14648 2.64845C5.70564 2.84487 5.28645 3.08615 4.89562 3.36845L2.31985 2.502L0 6.498L2.0417 8.28164C1.99239 8.75929 1.99239 9.24071 2.0417 9.71836L0 11.502L2.32067 15.498L4.89562 14.6324C5.28405 14.9122 5.7021 15.1544 6.14648 15.3515L6.67892 18H11.3203L11.8527 15.3515C12.2935 15.1551 12.7127 14.9138 13.1036 14.6315L15.6793 15.498L18 11.502L15.9575 9.71836C16.0068 9.24071 16.0068 8.75929 15.9575 8.28164L17.9992 6.498L15.6785 2.502L13.1044 3.36764C12.7135 3.08562 12.2943 2.84461 11.8535 2.64845L11.3203 0ZM8.99959 12.2727C8.12657 12.2727 7.2893 11.9279 6.67198 11.3142C6.05466 10.7004 5.70786 9.86798 5.70786 9C5.70786 8.13202 6.05466 7.29959 6.67198 6.68583C7.2893 6.07208 8.12657 5.72727 8.99959 5.72727C9.87261 5.72727 10.7099 6.07208 11.3272 6.68583C11.9445 7.29959 12.2913 8.13202 12.2913 9C12.2913 9.86798 11.9445 10.7004 11.3272 11.3142C10.7099 11.9279 9.87261 12.2727 8.99959 12.2727Z" fill="#D22F27"/>
</svg>
