<svg width="61" height="18" viewBox="0 0 61 18" fill="none" xmlns="http://www.w3.org/2000/svg">
    <path d="M16.5833 11.4342C15.5971 11.4342 14.6731 11.0167 13.8335 10.337L14.0379 9.37745L14.0468 9.34189C14.2288 8.32026 14.8064 6.6054 16.5833 6.6054C17.916 6.6054 19 7.68938 19 9.02201C18.9954 10.3503 17.9116 11.4342 16.5833 11.4342ZM16.5833 4.15775C14.3132 4.15775 12.5542 5.6326 11.839 8.05809C10.7462 6.41885 9.91984 4.45096 9.43569 2.79395H6.99242V9.15084C6.99242 10.4036 5.97067 11.4252 4.71792 11.4252C3.46517 11.4252 2.44354 10.4036 2.44354 9.15084V2.79395H2.78641e-05V9.15084C-0.00886107 11.7541 2.11014 13.8908 4.7133 13.8908C7.31645 13.8908 9.43581 11.7541 9.43581 9.15084V8.08476C9.91107 9.07534 10.493 10.0748 11.1994 10.9634L9.70224 17.9998H12.2034L13.2872 12.8957C14.2379 13.5043 15.3307 13.8864 16.5835 13.8864C19.2621 13.8864 21.4433 11.6919 21.4433 9.01312C21.4433 6.33885 19.2621 4.15775 16.5835 4.15775" fill="#6FDA44"/>
    <path d="M28.9018 4.43345L30.4788 10.7903L32.2158 4.43345H34.2858L31.6161 13.6201H29.5459L27.9068 7.22315L26.2719 13.6156H24.2019L21.5319 4.42906H23.602L25.3389 10.786L26.916 4.42906H28.9016L28.9018 4.43345ZM39.239 4.15801C36.5515 4.15801 34.3747 6.33912 34.3747 9.02227C34.3747 11.7099 36.5558 13.8867 39.239 13.8867C41.9267 13.8867 44.1078 11.7099 44.1078 9.02227C44.1078 6.33473 41.9267 4.15801 39.239 4.15801ZM39.239 11.8876C37.6576 11.8876 36.3782 10.6082 36.3782 9.02677C36.3782 7.44537 37.662 6.16596 39.239 6.16596C40.8205 6.16596 42.0998 7.44525 42.0998 9.02677C42.0998 10.6038 40.8205 11.8876 39.239 11.8876ZM50.0204 6.49023C48.6301 6.49023 47.5062 7.61853 47.5062 9.00449V13.6156H45.4226V4.43345H47.5062V5.84608C47.5062 5.84608 48.3946 4.42894 50.2204 4.42894H50.86V6.49023H50.0204ZM57.0127 8.66695C58.4918 7.83175 59.4959 6.24584 59.4959 4.42894H57.4124C57.4124 5.96151 56.1686 7.20537 54.6361 7.20537H54.3561V0H52.2728V13.6155H54.3561V9.28882H54.605C54.8093 9.28882 55.0759 9.42215 55.1958 9.58642L58.1543 13.6156H60.6509L57.0127 8.66695Z" fill="black"/>
</svg>
